#N canvas 43 59 928 534 10;
#X obj 280 73 tgl 20 0 empty empty empty 0 -6 0 8 -91991 -1 -1 25 25
;
#X msg 330 66 refresh;
#X obj 330 93 hid 0;
#X msg 400 76 info;
#X msg 330 40 open 11;
#N canvas 166 139 570 420 serin 0;
#X obj 286 61 cnv 15 30 15 empty \$0-open-canvas 11 4 8 0 14 -233017
-1 0;
#X obj 60 61 hradio 15 1 1 15 empty empty empty 0 -6 0 8 -225271 -1
-1 11;
#X obj 60 13 inlet;
#X msg 200 202 label \$1;
#X obj 200 180 makefilename %d;
#X obj 59 108 int;
#X obj 59 337 outlet;
#X msg 201 306 set \$1 \$2;
#X obj 59 266 trigger bang anything;
#X obj 201 286 list;
#X msg 60 210 open \$1;
#X obj 200 225 send \$0-open-canvas;
#X connect 1 0 5 0;
#X connect 2 0 1 0;
#X connect 3 0 11 0;
#X connect 4 0 3 0;
#X connect 5 0 4 0;
#X connect 5 0 10 0;
#X connect 7 0 6 0;
#X connect 8 0 6 0;
#X connect 8 1 9 0;
#X connect 9 0 7 0;
#X connect 10 0 8 0;
#X coords 0 -1 1 1 257 17 1 60 60;
#X restore 330 17 pd serin;
#X floatatom 465 253 6 0 0 0 - - -;
#X floatatom 511 175 6 0 0 0 - - -;
#X floatatom 555 175 6 0 0 0 - - -;
#X floatatom 598 175 6 0 0 0 - - -;
#X obj 381 153 route abs_x abs_y abs_z abs_rx abs_ry abs_rz;
#X obj 337 412 sequence seq1;
#X obj 364 501 dac~;
#X obj 330 124 route key abs;
#X obj 212 246 bng 15 250 50 0 empty empty empty 17 7 0 10 -262144
-1 -1;
#X obj 255 245 bng 15 250 50 0 empty empty empty 17 7 0 10 -262144
-1 -1;
#X obj 298 245 bng 15 250 50 0 empty empty empty 17 7 0 10 -262144
-1 -1;
#X obj 170 220 route btn_0 btn_1 btn_2 btn_3;
#X floatatom 170 252 5 0 0 0 - - -;
#X obj 468 212 / 15.15;
#X floatatom 596 260 6 0 0 0 - - -;
#X msg 444 336 seq1 frequency \$1;
#X floatatom 380 178 6 0 0 0 - - -;
#X obj 171 287 threshold~ 0.4 1 0.5 1;
#X obj 376 267 spigot;
#X msg 255 329 seq1 mute;
#X msg 174 328 seq1 unmute;
#X obj 352 457 *~;
#X obj 439 453 line~ 1;
#X floatatom 426 185 6 0 0 0 - - -;
#X obj 588 231 * 0.00298507;
#X connect 0 0 2 0;
#X connect 1 0 2 0;
#X connect 2 0 13 0;
#X connect 3 0 2 0;
#X connect 4 0 2 0;
#X connect 5 0 4 0;
#X connect 10 0 22 0;
#X connect 10 1 29 0;
#X connect 10 1 30 0;
#X connect 10 2 19 0;
#X connect 10 3 7 0;
#X connect 10 4 8 0;
#X connect 10 5 9 0;
#X connect 11 0 27 0;
#X connect 13 0 17 0;
#X connect 13 1 10 0;
#X connect 17 0 18 0;
#X connect 17 1 14 0;
#X connect 17 2 15 0;
#X connect 17 2 24 1;
#X connect 17 3 16 0;
#X connect 18 0 23 0;
#X connect 19 0 6 0;
#X connect 19 0 24 0;
#X connect 21 0 11 0;
#X connect 23 0 26 0;
#X connect 23 1 25 0;
#X connect 24 0 21 0;
#X connect 25 0 11 0;
#X connect 26 0 11 0;
#X connect 27 0 12 0;
#X connect 27 0 12 1;
#X connect 28 0 27 1;
#X connect 30 0 20 0;
#X connect 30 0 28 0;
