#N canvas 985 59 928 534 10;
#X obj 228 268 *~;
#X obj 352 251 line~;
#X obj 226 199 osc~;
#X obj 353 84 bng 30 250 50 0 empty empty DA_BEAT_!!!! 17 7 1 20 -133675
-1 -1;
#X obj 352 125 trigger bang bang;
#X obj 468 197 bng 20 250 50 0 empty empty DOWN 17 7 0 20 -260097 -1
-1;
#X msg 468 234 0 200;
#X obj 102 37 inlet;
#X obj 352 46 threshold~ 0.9 1 0.8 1;
#X obj 102 67 route \$1;
#X obj 468 162 delay 113;
#X obj 136 212 line~;
#X msg 102 138 0 100;
#X obj 227 229 *~;
#X msg 154 157 1 100;
#X obj 226 163 mtof 33;
#X obj 228 357 outlet~;
#X obj 257 41 float;
#X obj 280 319 *~;
#X obj 102 100 route mute unmute frequency bpm volume;
#X msg 284 173 \$1 10;
#X obj 291 292 line~ 1;
#X msg 352 220 110 100;
#X obj 353 19 phasor~;
#X obj 552 338;
#X connect 0 0 16 0;
#X connect 0 0 18 0;
#X connect 1 0 0 1;
#X connect 2 0 13 0;
#X connect 3 0 4 0;
#X connect 4 0 22 0;
#X connect 5 0 6 0;
#X connect 6 0 1 0;
#X connect 7 0 9 0;
#X connect 8 0 3 0;
#X connect 9 0 19 0;
#X connect 10 0 5 0;
#X connect 11 0 13 1;
#X connect 12 0 11 0;
#X connect 13 0 0 0;
#X connect 14 0 11 0;
#X connect 15 0 2 0;
#X connect 18 0 16 0;
#X connect 19 0 12 0;
#X connect 19 1 14 0;
#X connect 19 2 15 0;
#X connect 19 3 23 0;
#X connect 19 4 20 0;
#X connect 20 0 21 0;
#X connect 21 0 18 1;
#X connect 22 0 1 0;
#X connect 23 0 8 0;
