#N canvas 42 59 651 702 10;
#X obj 429 255 dac~;
#X msg 375 154 seq1 mute;
#X msg 364 127 seq1 unmute;
#X msg 494 80 seq2 frequency 33;
#X msg 502 105 seq2 frequency 29;
#X msg 375 154 seq1 mute;
#X msg 363 127 seq1 unmute;
#X msg 513 133 seq2 unmute;
#X msg 526 155 seq2 mute;
#X msg 349 100 seq1 frequency 29;
#X msg 341 75 seq1 frequency 33;
#X msg 304 9 seq1 bpm 2;
#X obj 350 189 sequence seq1;
#X obj 498 187 sequence seq2;
#X connect 1 0 12 0;
#X connect 2 0 12 0;
#X connect 3 0 13 0;
#X connect 4 0 13 0;
#X connect 7 0 13 0;
#X connect 8 0 13 0;
#X connect 9 0 12 0;
#X connect 10 0 12 0;
#X connect 11 0 12 0;
#X connect 12 0 0 0;
#X connect 13 0 0 1;
